<svg width="41" height="35" viewBox="0 0 41 35" fill="none" xmlns="http://www.w3.org/2000/svg">
<g clip-path="url(#clip0_718_88)">
<path d="M20.0976 23.106C21.6131 23.106 23.0665 22.504 24.1382 21.4324C25.2098 20.3607 25.8118 18.9073 25.8118 17.3918C25.8118 15.8762 25.2098 14.4228 24.1382 13.3512C23.0665 12.2795 21.6131 11.6775 20.0976 11.6775C18.5821 11.6775 17.1286 12.2795 16.057 13.3512C14.9853 14.4228 14.3833 15.8762 14.3833 17.3918C14.3833 18.9073 14.9853 20.3607 16.057 21.4324C17.1286 22.504 18.5821 23.106 20.0976 23.106Z" stroke="white" stroke-width="2" stroke-linecap="round" stroke-linejoin="round"/>
<path d="M7.24072 23.1058V11.6773C7.24072 9.78287 7.99327 7.96606 9.33281 6.62651C10.6724 5.28697 12.4892 4.53442 14.3836 4.53442H25.8121C27.7065 4.53442 29.5233 5.28697 30.8629 6.62651C32.2024 7.96606 32.955 9.78287 32.955 11.6773V23.1058C32.955 25.0002 32.2024 26.817 30.8629 28.1566C29.5233 29.4961 27.7065 30.2487 25.8121 30.2487H14.3836C12.4892 30.2487 10.6724 29.4961 9.33281 28.1566C7.99327 26.817 7.24072 25.0002 7.24072 23.1058Z" stroke="white" stroke-width="2"/>
<path d="M27.9551 9.54791L27.9684 9.5332" stroke="white" stroke-width="2" stroke-linecap="round" stroke-linejoin="round"/>
</g>
<defs>
<clipPath id="clip0_718_88">
<rect width="40" height="34.2857" fill="white" transform="translate(0.0976562 0.248779)"/>
</clipPath>
</defs>
</svg>
