<svg width="27" height="26" viewBox="0 0 27 26" fill="none" xmlns="http://www.w3.org/2000/svg">
<path d="M26.6325 15.7126V25.298H21.0754V16.3544C21.0754 14.1071 20.2713 12.5742 18.2604 12.5742C16.725 12.5742 15.8105 13.6082 15.4091 14.6072C15.2623 14.9644 15.2246 15.4619 15.2246 15.9621V25.298H9.66484C9.66484 25.298 9.74019 10.1516 9.66484 8.58108H15.2246V10.9505L15.1882 11.005H15.2246V10.9505C15.9624 9.81384 17.2809 8.18878 20.2336 8.18878C23.8903 8.18878 26.6325 10.579 26.6325 15.7126ZM3.85047 0.523315C1.95002 0.523315 0.705566 1.77037 0.705566 3.41102C0.705566 5.01529 1.91365 6.30002 3.77773 6.30002H3.8141C5.75352 6.30002 6.9577 5.01529 6.9577 3.41102C6.92393 1.77037 5.75352 0.523315 3.85047 0.523315ZM1.03552 25.298H6.59268V8.58108H1.03552V25.298Z" fill="white"/>
</svg>
