<svg width="14" height="26" viewBox="0 0 14 26" fill="none" xmlns="http://www.w3.org/2000/svg">
<path d="M9.21699 25.5863C7.68248 25.5863 6.14796 25.5863 4.61345 25.5863C4.61345 25.4777 4.59795 25.3691 4.59795 25.2605C4.59795 21.6457 4.59795 18.031 4.59795 14.4162C4.59795 14.3076 4.59795 14.2145 4.59795 14.0904C3.29593 14.0904 2.02492 14.0904 0.753906 14.0904C0.753906 12.5855 0.753906 11.1117 0.753906 9.6068C2.04042 9.6068 3.31143 9.6068 4.59795 9.6068C4.59795 9.48269 4.59795 9.38961 4.59795 9.31204C4.59795 8.36568 4.58245 7.41932 4.59795 6.48847C4.61345 5.88342 4.64445 5.27837 4.76845 4.68884C5.21795 2.37724 6.89197 0.825825 9.21699 0.500029C10.3485 0.344888 11.4645 0.437973 12.596 0.484515C12.9835 0.500029 13.3865 0.562086 13.774 0.608628C13.774 1.94284 13.774 3.26154 13.774 4.59575C12.782 4.61127 11.79 4.59575 10.8135 4.64229C10.0075 4.67332 9.5115 5.10772 9.31 5.85239C9.26349 6.03856 9.23249 6.24025 9.23249 6.42641C9.21699 7.43483 9.21699 8.44325 9.21699 9.45166C9.21699 9.49821 9.23249 9.56026 9.24799 9.63783C10.705 9.63783 12.162 9.63783 13.6345 9.63783C13.4485 11.1427 13.247 12.6165 13.061 14.1059C11.7745 14.1059 10.5035 14.1059 9.23249 14.1059C9.23249 14.23 9.23249 14.3076 9.23249 14.4007C9.23249 18.031 9.23249 21.6768 9.23249 25.3071C9.20149 25.4002 9.21699 25.4932 9.21699 25.5863Z" fill="white"/>
</svg>
