<svg width="26" height="26" viewBox="0 0 26 26" fill="none" xmlns="http://www.w3.org/2000/svg">
<path d="M17.4813 13.4274C17.4813 14.2203 17.2462 14.9954 16.8057 15.6547C16.3652 16.314 15.7391 16.8278 15.0065 17.1312C14.274 17.4347 13.4679 17.5141 12.6902 17.3594C11.9126 17.2047 11.1982 16.8229 10.6376 16.2622C10.0769 15.7015 9.69511 14.9872 9.54042 14.2095C9.38573 13.4319 9.46512 12.6258 9.76855 11.8933C10.072 11.1607 10.5858 10.5346 11.2451 10.0941C11.9044 9.65359 12.6795 9.41847 13.4724 9.41847C14.5352 9.41968 15.5542 9.84244 16.3058 10.594C17.0573 11.3456 17.4801 12.3646 17.4813 13.4274ZM26.0004 7.9151V18.9398C25.9983 20.7998 25.2584 22.583 23.9432 23.8983C22.628 25.2135 20.8447 25.9533 18.9847 25.9554H7.96003C6.1 25.9533 4.31675 25.2135 3.00151 23.8983C1.68627 22.583 0.946442 20.7998 0.944336 18.9398V7.9151C0.946442 6.05507 1.68627 4.27183 3.00151 2.95659C4.31675 1.64135 6.1 0.901521 7.96003 0.899414H18.9847C20.8447 0.901521 22.628 1.64135 23.9432 2.95659C25.2584 4.27183 25.9983 6.05507 26.0004 7.9151ZM19.4858 13.4274C19.4858 12.2381 19.1331 11.0754 18.4724 10.0865C17.8116 9.09763 16.8724 8.32687 15.7736 7.87173C14.6748 7.41659 13.4657 7.2975 12.2992 7.52953C11.1327 7.76156 10.0612 8.33429 9.2202 9.17528C8.37921 10.0163 7.80648 11.0878 7.57445 12.2543C7.34242 13.4208 7.46151 14.6299 7.91665 15.7287C8.3718 16.8275 9.14255 17.7667 10.1315 18.4274C11.1204 19.0882 12.283 19.4409 13.4724 19.4409C15.0667 19.4391 16.5952 18.8049 17.7225 17.6776C18.8499 16.5502 19.484 15.0217 19.4858 13.4274ZM21.4903 6.91286C21.4903 6.61553 21.4021 6.32487 21.2369 6.07764C21.0717 5.83041 20.8369 5.63772 20.5622 5.52394C20.2875 5.41015 19.9853 5.38038 19.6936 5.43839C19.402 5.49639 19.1341 5.63958 18.9239 5.84982C18.7136 6.06007 18.5705 6.32795 18.5124 6.61957C18.4544 6.91119 18.4842 7.21347 18.598 7.48817C18.7118 7.76288 18.9045 7.99767 19.1517 8.16286C19.3989 8.32805 19.6896 8.41622 19.9869 8.41622C20.3856 8.41622 20.768 8.25783 21.05 7.9759C21.3319 7.69396 21.4903 7.31158 21.4903 6.91286Z" fill="white"/>
</svg>
