<svg width="24" height="19" viewBox="0 0 24 19" fill="none" xmlns="http://www.w3.org/2000/svg">
<path d="M0.781057 10.1367L9.40577 18.2363C9.58559 18.4051 9.82947 18.5 10.0838 18.5C10.3381 18.5 10.582 18.4051 10.7618 18.2363C10.9416 18.0674 11.0426 17.8384 11.0426 17.5995C11.0426 17.3607 10.9416 17.1317 10.7618 16.9628L3.77216 10.3999L22.5417 10.3999C22.7959 10.3999 23.0396 10.3051 23.2193 10.1364C23.399 9.96759 23.5 9.73868 23.5 9.5C23.5 9.26132 23.399 9.03241 23.2193 8.86364C23.0396 8.69486 22.7959 8.60005 22.5417 8.60005L3.77216 8.60005L10.7618 2.03716C10.9416 1.8683 11.0426 1.63926 11.0426 1.40045C11.0426 1.16164 10.9416 0.932603 10.7618 0.763736C10.582 0.594869 10.3381 0.5 10.0838 0.5C9.82947 0.5 9.58559 0.594869 9.40577 0.763736L0.781057 8.86328C0.691957 8.94686 0.621273 9.04612 0.573046 9.15537C0.52482 9.26462 0.5 9.38173 0.5 9.5C0.5 9.61827 0.52482 9.73537 0.573046 9.84462C0.621273 9.95388 0.691957 10.0531 0.781057 10.1367Z" fill="white" stroke="white" stroke-width="0.3"/>
</svg>
