<svg width="25" height="25" viewBox="0 0 25 25" fill="none" xmlns="http://www.w3.org/2000/svg">
<path d="M8.56836 24.8216C8.56836 19.5676 8.56836 14.329 8.56836 9.07495C8.56836 8.95059 8.56836 8.82624 8.56836 8.67079C10.1695 8.67079 11.755 8.67079 13.3872 8.67079C13.3872 9.38584 13.3872 10.1009 13.3872 10.8315C13.7292 10.4273 14.0245 10.0232 14.382 9.68119C15.2681 8.84178 16.3407 8.40653 17.5376 8.29772C18.5791 8.20445 19.6206 8.28218 20.631 8.59307C22.2787 9.12159 23.3046 10.2719 23.7399 11.9041C23.9575 12.7435 24.0352 13.6295 24.1751 14.4845C24.2062 14.6555 24.2218 14.8265 24.2373 15.013C24.2373 18.2618 24.2373 21.5262 24.2373 24.775C22.574 24.775 20.8952 24.775 19.2009 24.775C19.2009 24.6351 19.2009 24.5107 19.2009 24.4019C19.2009 21.7283 19.2164 19.0701 19.1853 16.3965C19.1853 15.7436 19.0921 15.0752 18.9522 14.4378C18.7656 13.5673 18.2526 12.9456 17.3355 12.7435C16.9624 12.6658 16.5738 12.6502 16.1852 12.6813C14.9261 12.7746 14.1022 13.443 13.8224 14.671C13.667 15.3705 13.5893 16.1167 13.5893 16.8317C13.5582 19.5054 13.5737 22.1635 13.5737 24.8372C11.926 24.8216 10.2472 24.8216 8.56836 24.8216Z" fill="white"/>
<path d="M0.40625 24.8217C0.40625 21.4175 0.40625 18.0287 0.40625 14.6245C0.40625 12.7591 0.40625 10.8782 0.40625 9.01288C0.40625 8.90407 0.40625 8.79526 0.40625 8.6709C2.08507 8.6709 3.7328 8.6709 5.42716 8.6709C5.42716 8.79526 5.42716 8.91961 5.42716 9.04397C5.42716 14.2514 5.42716 19.4744 5.42716 24.6818C5.42716 24.7285 5.42716 24.7751 5.42716 24.8217C3.76389 24.8217 2.08507 24.8217 0.40625 24.8217Z" fill="white"/>
<path d="M5.81422 3.52442C5.78314 5.17215 4.4463 6.46235 2.82966 6.41571C1.2752 6.38462 -0.0305452 5.0167 0.000543976 3.43115C0.0316332 1.8456 1.38401 0.555399 2.96956 0.586488C4.57066 0.633122 5.84531 1.93887 5.81422 3.52442Z" fill="white"/>
</svg>
