<svg width="41" height="35" viewBox="0 0 41 35" fill="none" xmlns="http://www.w3.org/2000/svg">
<path d="M20.9332 1.30359C24.4359 1.30359 27.795 2.695 30.2718 5.17174C32.7485 7.64847 34.1399 11.0076 34.1399 14.5103C34.1399 20.0909 30.2185 26.1728 22.4774 32.8208C22.047 33.1906 21.4982 33.3937 20.9307 33.3932C20.3632 33.3927 19.8148 33.1886 19.385 32.8181L18.873 32.3738C11.4745 25.8992 7.72656 19.9663 7.72656 14.5103C7.72656 11.0076 9.11798 7.64847 11.5947 5.17174C14.0714 2.695 17.4306 1.30359 20.9332 1.30359ZM20.9332 3.33539C17.9695 3.33539 15.1271 4.51274 13.0314 6.60843C10.9357 8.70413 9.75836 11.5465 9.75836 14.5103C9.75836 19.2538 13.2097 24.7194 20.2072 30.8418L20.7125 31.2794C20.7739 31.3322 20.8522 31.3612 20.9332 31.3612C21.0143 31.3612 21.0926 31.3322 21.154 31.2794C28.4902 24.9781 32.1081 19.3663 32.1081 14.5103C32.1081 13.0428 31.8191 11.5896 31.2575 10.2338C30.6959 8.87803 29.8728 7.64612 28.8351 6.60843C27.7974 5.57075 26.5655 4.74761 25.2097 4.18602C23.8539 3.62443 22.4007 3.33539 20.9332 3.33539ZM20.9332 9.43077C22.2804 9.43077 23.5724 9.96593 24.525 10.9185C25.4776 11.8711 26.0127 13.1631 26.0127 14.5103C26.0127 15.8574 25.4776 17.1494 24.525 18.102C23.5724 19.0546 22.2804 19.5898 20.9332 19.5898C19.5861 19.5898 18.2941 19.0546 17.3415 18.102C16.3889 17.1494 15.8537 15.8574 15.8537 14.5103C15.8537 13.1631 16.3889 11.8711 17.3415 10.9185C18.2941 9.96593 19.5861 9.43077 20.9332 9.43077ZM20.9332 11.4626C20.1249 11.4626 19.3497 11.7837 18.7782 12.3552C18.2066 12.9268 17.8855 13.702 17.8855 14.5103C17.8855 15.3186 18.2066 16.0938 18.7782 16.6653C19.3497 17.2369 20.1249 17.558 20.9332 17.558C21.7415 17.558 22.5167 17.2369 23.0883 16.6653C23.6598 16.0938 23.9809 15.3186 23.9809 14.5103C23.9809 13.702 23.6598 12.9268 23.0883 12.3552C22.5167 11.7837 21.7415 11.4626 20.9332 11.4626Z" fill="white"/>
</svg>
