<svg width="41" height="35" viewBox="0 0 41 35" fill="none" xmlns="http://www.w3.org/2000/svg">
<path d="M32.077 5.17139H9.51908C8.51324 5.17139 7.5486 5.57095 6.83737 6.28219C6.12613 6.99343 5.72656 7.95807 5.72656 8.96391V25.4538C5.72656 26.4596 6.12613 27.4243 6.83737 28.1355C7.5486 28.8467 8.51324 29.2463 9.51908 29.2463H32.077C33.0828 29.2463 34.0475 28.8467 34.7587 28.1355C35.4699 27.4243 35.8695 26.4596 35.8695 25.4538V8.96391C35.8695 7.95807 35.4699 6.99343 34.7587 6.28219C34.0475 5.57095 33.0828 5.17139 32.077 5.17139ZM9.51908 6.68839H32.077C32.6511 6.6871 33.2042 6.90431 33.624 7.29593C34.0438 7.68755 34.2988 8.22423 34.3373 8.79704C30.5903 10.7995 26.8281 12.7868 23.066 14.7892C22.5578 15.1096 22.0192 15.3789 21.4579 15.5932C21.0179 15.6804 20.5643 15.6727 20.1274 15.5707C19.6906 15.4686 19.2805 15.2746 18.9245 15.0016C16.7704 13.8638 14.6162 12.7109 12.4772 11.5732C10.7479 10.663 8.98813 9.73758 7.25874 8.81221C7.29357 8.2367 7.547 7.69626 7.96718 7.30145C8.38736 6.90665 8.94252 6.68734 9.51908 6.68839ZM34.3525 25.4538C34.3525 26.0573 34.1128 26.6361 33.686 27.0628C33.2593 27.4896 32.6805 27.7293 32.077 27.7293H9.51908C8.91558 27.7293 8.33679 27.4896 7.91005 27.0628C7.48331 26.6361 7.24357 26.0573 7.24357 25.4538V10.534C10.8237 12.4151 14.3887 14.3265 17.9688 16.2228C18.6083 16.6153 19.2969 16.9214 20.0168 17.133C21.0702 17.3045 22.1499 17.0832 23.0508 16.511C25.2505 15.3581 27.4349 14.19 29.6346 13.0371C31.2123 12.1875 32.7748 11.3684 34.3525 10.534V25.4538Z" fill="white"/>
</svg>
