<svg width="41" height="35" viewBox="0 0 41 35" fill="none" xmlns="http://www.w3.org/2000/svg">
<path d="M34.5532 10.4207C33.2728 15.4141 30.6741 19.9716 27.0291 23.6167C23.384 27.2618 18.8264 29.8604 13.8331 31.1408C9.99089 32.1189 6.72656 28.8151 6.72656 24.8491V23.0545C6.72656 22.0639 7.53233 21.2689 8.51755 21.1702C10.1513 21.0078 11.7551 20.6219 13.2839 20.0235L16.0117 22.7512C20.453 20.6221 24.0345 17.0407 26.1636 12.5993L23.4358 9.87157C24.0349 8.3428 24.4214 6.73905 24.5843 5.10519C24.6812 4.11818 25.4762 3.31421 26.4668 3.31421H28.2614C32.2274 3.31421 35.5312 6.57853 34.5532 10.4207Z" stroke="white" stroke-width="1.79457" stroke-linecap="round" stroke-linejoin="round"/>
</svg>
