<svg width="24" height="19" viewBox="0 0 24 19" fill="none" xmlns="http://www.w3.org/2000/svg">
<path d="M23.2189 10.1367L14.5942 18.2363C14.4144 18.4051 14.1705 18.5 13.9162 18.5C13.6619 18.5 13.418 18.4051 13.2382 18.2363C13.0584 18.0674 12.9574 17.8384 12.9574 17.5995C12.9574 17.3607 13.0584 17.1317 13.2382 16.9628L20.2278 10.3999L1.4583 10.3999C1.20414 10.3999 0.960397 10.3051 0.78068 10.1364C0.600964 9.96759 0.5 9.73868 0.5 9.5C0.5 9.26132 0.600964 9.03241 0.78068 8.86364C0.960397 8.69486 1.20414 8.60005 1.4583 8.60005L20.2278 8.60005L13.2382 2.03716C13.0584 1.8683 12.9574 1.63926 12.9574 1.40045C12.9574 1.16164 13.0584 0.932603 13.2382 0.763736C13.418 0.594869 13.6619 0.5 13.9162 0.5C14.1705 0.5 14.4144 0.594869 14.5942 0.763736L23.2189 8.86328C23.308 8.94686 23.3787 9.04612 23.427 9.15537C23.4752 9.26462 23.5 9.38173 23.5 9.5C23.5 9.61827 23.4752 9.73537 23.427 9.84462C23.3787 9.95388 23.308 10.0531 23.2189 10.1367Z" fill="white" stroke="white" stroke-width="0.3"/>
</svg>
