<svg width="257" height="28" viewBox="0 0 257 28" fill="none" xmlns="http://www.w3.org/2000/svg">
<path d="M0.00195312 0.993295H19.2863V7.20943H7.73623V10.8612H17.8708V17.0568H7.73623V21.1804H19.4915V27.376H0.00195312V0.972778V0.993295Z" fill="white"/>
<path d="M44.0485 27.3965H23.6152V0.993301H31.37V21.2214H44.0485V27.3965Z" fill="white"/>
<path d="M54.8603 27.3965H47.1055V0.993301H54.8603V27.3965Z" fill="white"/>
<path d="M57.8145 0.993301H80.8121V7.33253H73.0984V27.3965H65.3436V7.33253H57.8145V0.993301Z" fill="white"/>
<path d="M83.7871 0.993295H103.071V7.20943H91.5214V10.8612H101.656V17.0568H91.5214V21.1804H103.277V27.376H83.7871V0.972778V0.993295Z" fill="white"/>
<path d="M119.893 0.582993C124.55 0.582993 128.551 2.83968 131.054 6.51192L129.289 7.80438C126.93 4.4809 123.566 2.69607 119.893 2.69607C113.636 2.69607 109.061 7.47614 109.061 13.9179C109.061 20.3597 113.718 25.1193 120.017 25.1193C126.315 25.1193 127.135 23.396 129.515 20.011L131.218 21.3035C128.777 24.9141 124.632 27.2119 120.017 27.2119C112.467 27.2119 106.764 21.4881 106.764 13.9179C106.764 6.34779 112.405 0.582993 119.914 0.582993H119.893Z" fill="white"/>
<path d="M133.064 26.8426L143.794 0.972778H146.789L157.518 26.8426H155.2L152.431 20.2366H138.173L135.403 26.8426H133.085H133.064ZM151.59 18.1851L145.291 3.02431L139.014 18.1851H151.61H151.59Z" fill="white"/>
<path d="M161.725 26.8426V0.972778H172.269C177.214 0.972778 180.435 3.9475 180.435 8.44035C180.435 12.9332 177.214 15.8259 172.269 15.8259H164.002V26.8426H161.725ZM164.022 13.7743H172.167C176.065 13.7743 178.116 11.6613 178.116 8.44035C178.116 5.21945 176.085 3.02431 172.167 3.02431H164.022V13.7743Z" fill="white"/>
<path d="M185.543 0.972778H187.82V26.8426H185.543V0.972778Z" fill="white"/>
<path d="M192.395 0.972778H212.233V3.06534H203.452V26.8426H201.175V3.06534H192.395V0.972778Z" fill="white"/>
<path d="M210.365 26.8426L221.095 0.972778H224.09L234.819 26.8426H232.501L229.732 20.2366H215.474L212.704 26.8426H210.386H210.365ZM228.87 18.1851L222.572 3.02431L216.294 18.1851H228.891H228.87Z" fill="white"/>
<path d="M239.026 26.8426V0.972778H241.304V24.75H256.957V26.8426H239.006H239.026Z" fill="white"/>
</svg>
