<svg width="297" height="53" viewBox="0 0 297 53" fill="none" xmlns="http://www.w3.org/2000/svg">
<path d="M40.0458 0.410302H59.3302V6.62644H47.7801V10.2782H57.9146V16.4738H47.7801V20.5974H59.5353V26.793H40.0458V0.389786V0.410302Z" fill="white"/>
<path d="M84.0923 26.8135H63.6591V0.410309H71.4139V20.6384H84.0923V26.8135Z" fill="white"/>
<path d="M94.9031 26.8135H87.1483V0.410309H94.9031V26.8135Z" fill="white"/>
<path d="M97.8575 0.410309H120.855V6.74954H113.141V26.8135H105.387V6.74954H97.8575V0.410309Z" fill="white"/>
<path d="M123.831 0.410302H143.115V6.62644H131.565V10.2782H141.7V16.4738H131.565V20.5974H143.32V26.793H123.831V0.389786V0.410302Z" fill="white"/>
<path d="M159.937 0C164.594 0 168.595 2.25668 171.098 5.92892L169.333 7.22138C166.974 3.8979 163.61 2.11307 159.937 2.11307C153.68 2.11307 149.105 6.89314 149.105 13.335C149.105 19.7768 153.762 24.5363 160.06 24.5363C166.359 24.5363 167.179 22.813 169.559 19.428L171.262 20.7205C168.82 24.3312 164.676 26.6289 160.06 26.6289C152.511 26.6289 146.807 20.9051 146.807 13.335C146.807 5.7648 152.449 0 159.958 0H159.937Z" fill="white"/>
<path d="M173.108 26.2596L183.838 0.389786H186.833L197.562 26.2596H195.244L192.475 19.6537H178.216L175.447 26.2596H173.129H173.108ZM191.633 17.6021L185.335 2.44132L179.058 17.6021H191.654H191.633Z" fill="white"/>
<path d="M201.768 26.2596V0.389786H212.313C217.257 0.389786 220.478 3.3645 220.478 7.85736C220.478 12.3502 217.257 15.2429 212.313 15.2429H204.046V26.2596H201.768ZM204.066 13.1913H212.211C216.109 13.1913 218.16 11.0783 218.16 7.85736C218.16 4.63645 216.129 2.44132 212.211 2.44132H204.066V13.1913Z" fill="white"/>
<path d="M225.587 0.389786H227.864V26.2596H225.587V0.389786Z" fill="white"/>
<path d="M232.437 0.389786H252.276V2.48234H243.495V26.2596H241.218V2.48234H232.437V0.389786Z" fill="white"/>
<path d="M250.409 26.2596L261.139 0.389786H264.134L274.863 26.2596H272.545L269.776 19.6537H255.517L252.748 26.2596H250.43H250.409ZM268.914 17.6021L262.616 2.44132L256.338 17.6021H268.934H268.914Z" fill="white"/>
<path d="M279.069 26.2596V0.389786H281.347V24.167H297V26.2596H279.049H279.069Z" fill="white"/>
<path d="M39.7178 40.2921H43.5747C44.4569 40.2921 45.1749 40.3946 45.7493 40.5793C46.3238 40.7844 46.7546 41.0306 47.0828 41.3383C47.4111 41.6461 47.6367 41.9948 47.7598 42.4051C47.8829 42.8154 47.9445 43.2052 47.9445 43.6155C47.9445 44.3951 47.7598 45.0516 47.4111 45.6055C47.0623 46.1594 46.4879 46.5697 45.7083 46.857L48.3548 52.5397H47.1444L44.6825 47.1031C44.4774 47.1237 44.2927 47.1442 44.0876 47.1647C43.8824 47.1647 43.6568 47.1852 43.4311 47.1852H40.7641V52.5397H39.7383V40.2715L39.7178 40.2921ZM43.6978 46.2825C44.3133 46.2825 44.8261 46.221 45.2365 46.0979C45.6468 45.9748 45.975 45.8107 46.2007 45.5645C46.4468 45.3388 46.611 45.0516 46.7135 44.7439C46.8161 44.4156 46.8572 44.0669 46.8572 43.6361C46.8572 43.2052 46.7956 42.877 46.693 42.5898C46.5905 42.282 46.4058 42.0359 46.1596 41.8307C45.9135 41.6256 45.5647 41.4614 45.1339 41.3589C44.7031 41.2563 44.1697 41.1947 43.5132 41.1947H40.7436V46.262H43.6978V46.2825Z" fill="white"/>
<path d="M57.0535 50.242C56.9099 51.0011 56.5406 51.637 55.9456 52.1089C55.3507 52.5807 54.5096 52.8269 53.4017 52.8269C52.2939 52.8269 51.1451 52.4166 50.4475 51.596C49.75 50.7754 49.4013 49.6471 49.4013 48.211C49.4013 46.7749 49.5038 46.7544 49.709 46.1594C49.9141 45.5645 50.1808 45.0721 50.5501 44.6618C50.9194 44.2515 51.3297 43.9438 51.8221 43.7386C52.3144 43.5335 52.8478 43.4309 53.4223 43.4309C53.9967 43.4309 54.6942 43.5335 55.1661 43.7592C55.6379 43.9848 56.0482 44.2926 56.3354 44.6618C56.6432 45.0516 56.8688 45.503 56.9919 46.0363C57.1355 46.5697 57.1971 47.1237 57.1971 47.7391V48.3751H50.386C50.386 48.888 50.4475 49.3598 50.5706 49.7907C50.6937 50.2215 50.8784 50.6113 51.1451 50.9395C51.3912 51.2678 51.7195 51.5139 52.0888 51.7191C52.458 51.9037 52.9094 52.0063 53.4017 52.0063C53.8941 52.0063 54.2224 51.9653 54.5301 51.8832C54.8378 51.8012 55.1045 51.6781 55.3097 51.5139C55.5148 51.3498 55.6789 51.1652 55.802 50.96C55.9251 50.7549 56.0072 50.5087 56.0893 50.242H57.0535ZM56.1713 47.534C56.1713 47.0621 56.1098 46.6108 56.0072 46.221C55.9046 45.8107 55.7405 45.4824 55.5353 45.1747C55.3097 44.8875 55.0225 44.6618 54.6737 44.4977C54.3249 44.3336 53.8941 44.2515 53.4017 44.2515C52.5401 44.2515 51.8631 44.5182 51.3502 45.0516C50.8373 45.585 50.5296 46.4056 50.427 47.534H56.1713Z" fill="white"/>
<path d="M64.9106 51.3088C64.767 51.4934 64.5824 51.6781 64.3772 51.8422C64.1721 52.0268 63.9464 52.1704 63.6797 52.314C63.413 52.4576 63.1258 52.5602 62.818 52.6423C62.5103 52.7243 62.1616 52.7654 61.7718 52.7654C60.8486 52.7654 60.0895 52.5397 59.5356 52.0884C58.9817 51.637 58.6945 50.9805 58.6945 50.0984C58.6945 49.2162 58.8176 49.0111 59.0637 48.6418C59.3099 48.2725 59.6587 47.9648 60.069 47.7391C60.4793 47.5135 60.9717 47.3698 61.5051 47.2878C62.0385 47.2057 62.5924 47.1442 63.1668 47.1237L64.8901 47.0621V46.7954C64.8901 45.9338 64.726 45.2978 64.3772 44.8875C64.049 44.4772 63.4335 44.2925 62.5719 44.2925C61.7102 44.2925 61.7923 44.3336 61.5051 44.3951C61.2179 44.4567 60.9717 44.5592 60.7665 44.7028C60.5614 44.8259 60.4178 44.9901 60.2947 45.1747C60.1716 45.3593 60.0895 45.544 60.028 45.7696L59.1253 45.626C59.4535 44.19 60.6024 43.4719 62.5924 43.4719C64.5824 43.4719 63.7412 43.554 64.1515 43.6976C64.5824 43.8412 64.9106 44.0669 65.1773 44.3336C65.444 44.6208 65.6286 44.949 65.7312 45.3593C65.8543 45.7696 65.8953 46.2415 65.8953 46.7544V52.5807H64.8901V51.3293L64.9106 51.3088ZM64.8901 47.8622L63.2489 47.9238C62.5924 47.9443 62.0385 48.0058 61.5871 48.1084C61.1358 48.211 60.787 48.3341 60.4998 48.5187C60.2331 48.7033 60.028 48.9085 59.9049 49.1752C59.7818 49.4419 59.7202 49.7496 59.7202 50.0984C59.7202 50.6318 59.8638 51.0626 60.1716 51.3908C60.4793 51.7191 61.0127 51.8832 61.7512 51.8832C62.4898 51.8832 62.5103 51.8422 62.8796 51.7601C63.2489 51.6781 63.5566 51.5345 63.8028 51.3293C64.0079 51.1857 64.1721 51.0421 64.3157 50.8985C64.4388 50.7549 64.5619 50.6113 64.6439 50.4471C64.726 50.283 64.7875 50.0984 64.8285 49.8932C64.8696 49.6881 64.8901 49.4419 64.8901 49.1752V47.8622Z" fill="white"/>
<path d="M68.337 40.2921H69.3422V52.5602H68.337V40.2921Z" fill="white"/>
<path d="M79.4969 40.2921H80.7279L85.5695 52.5602H84.4411L82.964 48.8059H77.1992L75.7426 52.5602H74.6348L79.4969 40.2921ZM82.5948 47.8622L80.0714 41.4614L77.589 47.8622H82.5948Z" fill="white"/>
<path d="M87.519 50.0984C87.6421 50.7754 87.9293 51.2678 88.4011 51.555C88.8525 51.8422 89.509 51.9858 90.3501 51.9858C91.1912 51.9858 91.8067 51.8217 92.1759 51.5139C92.5247 51.1857 92.7093 50.7959 92.7093 50.3035C92.7093 49.8112 92.6888 49.9137 92.6478 49.7291C92.6068 49.5445 92.5042 49.3803 92.3811 49.2367C92.258 49.0931 92.0528 48.97 91.8067 48.8675C91.5605 48.7649 91.2322 48.6828 90.863 48.6008L89.7757 48.4366C89.3038 48.3546 88.8935 48.252 88.5037 48.1494C88.1344 48.0263 87.8267 47.8827 87.56 47.6981C87.2933 47.5135 87.1087 47.2673 86.9856 47.0006C86.8625 46.7134 86.7804 46.3646 86.7804 45.9543C86.7804 45.544 86.8625 45.2157 87.0471 44.908C87.2112 44.6003 87.4574 44.3336 87.7446 44.1079C88.0524 43.9028 88.4011 43.7386 88.7909 43.6155C89.2012 43.4925 89.632 43.4514 90.1039 43.4514C90.5757 43.4514 91.2117 43.513 91.622 43.6361C92.0323 43.7592 92.3606 43.9233 92.6273 44.1284C92.894 44.3336 93.0786 44.5798 93.2222 44.8465C93.3658 45.1132 93.4684 45.4209 93.5505 45.7286L92.6478 45.9133C92.5657 45.6466 92.4426 45.4209 92.3401 45.2157C92.2375 45.0106 92.0734 44.8465 91.8887 44.7234C91.7041 44.6003 91.4784 44.4977 91.2117 44.4156C90.945 44.3336 90.5963 44.3131 90.186 44.3131C89.7757 44.3131 89.3448 44.3541 89.0371 44.4362C88.7294 44.5182 88.4832 44.6413 88.2985 44.7849C88.1139 44.9285 87.9703 45.1132 87.8882 45.2978C87.8062 45.503 87.7652 45.6876 87.7652 45.8928C87.7652 46.0979 87.7857 46.2825 87.8267 46.4467C87.8677 46.6108 87.9703 46.7544 88.0934 46.8775C88.2165 47.0006 88.4216 47.1031 88.6678 47.2057C88.914 47.2878 89.2423 47.3698 89.632 47.4519L90.986 47.6776C91.9092 47.8417 92.6068 48.1084 93.0581 48.5187C93.5094 48.9085 93.7351 49.524 93.7351 50.3241C93.7351 51.1241 93.6736 51.0011 93.53 51.3088C93.3863 51.6165 93.1812 51.8832 92.894 52.1089C92.6068 52.3346 92.258 52.5192 91.8477 52.6423C91.4169 52.7654 90.945 52.8474 90.3911 52.8474C89.8372 52.8474 89.3653 52.7859 88.914 52.6833C88.4627 52.5807 88.0729 52.4166 87.7446 52.2115C87.4164 51.9858 87.1497 51.7191 86.9445 51.3703C86.7394 51.0216 86.6163 50.6113 86.5753 50.1189H87.56L87.519 50.0984Z" fill="white"/>
<path d="M96.3403 50.0984C96.4633 50.7754 96.7506 51.2678 97.2224 51.555C97.6737 51.8422 98.3302 51.9858 99.1714 51.9858C100.012 51.9858 100.628 51.8217 100.997 51.5139C101.346 51.1857 101.531 50.7959 101.531 50.3035C101.531 49.8112 101.51 49.9137 101.469 49.7291C101.428 49.5445 101.325 49.3803 101.202 49.2367C101.079 49.0931 100.874 48.97 100.628 48.8675C100.382 48.7649 100.054 48.6828 99.6842 48.6008L98.5969 48.4366C98.1251 48.3546 97.7148 48.252 97.325 48.1494C96.9557 48.0263 96.648 47.8827 96.3813 47.6981C96.1146 47.5135 95.9299 47.2673 95.8069 47.0006C95.6838 46.7134 95.6017 46.3646 95.6017 45.9543C95.6017 45.544 95.6838 45.2157 95.8684 44.908C96.0325 44.6003 96.2787 44.3336 96.5659 44.1079C96.8737 43.9028 97.2224 43.7386 97.6122 43.6155C98.0225 43.4925 98.4533 43.4514 98.9252 43.4514C99.397 43.4514 100.033 43.513 100.443 43.6361C100.854 43.7592 101.182 43.9233 101.449 44.1284C101.715 44.3336 101.9 44.5798 102.044 44.8465C102.187 45.1132 102.29 45.4209 102.372 45.7286L101.469 45.9133C101.387 45.6466 101.264 45.4209 101.161 45.2157C101.059 45.0106 100.895 44.8465 100.71 44.7234C100.525 44.6003 100.3 44.4977 100.033 44.4156C99.7663 44.3336 99.4176 44.3131 99.0072 44.3131C98.5969 44.3131 98.1661 44.3541 97.8584 44.4362C97.5507 44.5182 97.3045 44.6413 97.1198 44.7849C96.9352 44.9285 96.7916 45.1132 96.7095 45.2978C96.6275 45.503 96.5864 45.6876 96.5864 45.8928C96.5864 46.0979 96.607 46.2825 96.648 46.4467C96.689 46.6108 96.7916 46.7544 96.9147 46.8775C97.0378 47.0006 97.2429 47.1031 97.4891 47.2057C97.7353 47.2878 98.0635 47.3698 98.4533 47.4519L99.8073 47.6776C100.731 47.8417 101.428 48.1084 101.879 48.5187C102.331 48.9085 102.556 49.524 102.556 50.3241C102.556 51.1241 102.495 51.0011 102.351 51.3088C102.208 51.6165 102.002 51.8832 101.715 52.1089C101.428 52.3346 101.079 52.5192 100.669 52.6423C100.238 52.7654 99.7663 52.8474 99.2124 52.8474C98.6585 52.8474 98.1866 52.7859 97.7353 52.6833C97.284 52.5807 96.8942 52.4166 96.5659 52.2115C96.2377 51.9858 95.971 51.7191 95.7658 51.3703C95.5607 51.0216 95.4376 50.6113 95.3965 50.1189H96.3813L96.3403 50.0984Z" fill="white"/>
<path d="M111.767 50.242C111.624 51.0011 111.255 51.637 110.66 52.1089C110.065 52.5807 109.224 52.8269 108.116 52.8269C107.008 52.8269 105.859 52.4166 105.162 51.596C104.464 50.7754 104.115 49.6471 104.115 48.211C104.115 46.7749 104.218 46.7544 104.423 46.1594C104.628 45.5645 104.895 45.0721 105.264 44.6618C105.633 44.2515 106.044 43.9438 106.536 43.7386C107.028 43.5335 107.562 43.4309 108.136 43.4309C108.711 43.4309 109.408 43.5335 109.88 43.7592C110.352 43.9848 110.762 44.2926 111.049 44.6618C111.357 45.0516 111.583 45.503 111.706 46.0363C111.85 46.5697 111.911 47.1237 111.911 47.7391V48.3751H105.1C105.1 48.888 105.162 49.3598 105.285 49.7907C105.408 50.2215 105.592 50.6113 105.859 50.9395C106.105 51.2678 106.433 51.5139 106.803 51.7191C107.172 51.9037 107.623 52.0063 108.116 52.0063C108.608 52.0063 108.936 51.9653 109.244 51.8832C109.552 51.8012 109.819 51.6781 110.024 51.5139C110.229 51.3498 110.393 51.1652 110.516 50.96C110.639 50.7549 110.721 50.5087 110.803 50.242H111.767ZM110.885 47.534C110.885 47.0621 110.824 46.6108 110.721 46.221C110.619 45.8107 110.454 45.4824 110.249 45.1747C110.024 44.8875 109.736 44.6618 109.388 44.4977C109.039 44.3336 108.608 44.2515 108.116 44.2515C107.254 44.2515 106.577 44.5182 106.064 45.0516C105.551 45.585 105.244 46.4056 105.141 47.534H110.885Z" fill="white"/>
<path d="M114.497 44.5387H113.122V43.7181H114.497V41.2768H115.502V43.7181H118.005V44.5387H115.502V50.324C115.502 50.7549 115.584 51.1241 115.769 51.4319C115.953 51.7396 116.282 51.8832 116.733 51.8832C117.184 51.8832 117.287 51.8627 117.492 51.8217C117.697 51.7806 117.882 51.7191 118.046 51.6575L118.251 52.4576C118.087 52.5192 117.861 52.5807 117.615 52.6423C117.369 52.7038 117.041 52.7243 116.651 52.7243C116.261 52.7243 115.748 52.6423 115.461 52.4576C115.174 52.2935 114.969 52.0678 114.825 51.7806C114.681 51.4934 114.599 51.1857 114.558 50.8164C114.517 50.4471 114.497 50.0573 114.497 49.6676V44.5182V44.5387Z" fill="white"/>
<path d="M120.199 50.0984C120.323 50.7754 120.61 51.2678 121.082 51.555C121.533 51.8422 122.189 51.9858 123.031 51.9858C123.872 51.9858 124.487 51.8217 124.856 51.5139C125.205 51.1857 125.39 50.7959 125.39 50.3035C125.39 49.8112 125.369 49.9137 125.328 49.7291C125.287 49.5445 125.185 49.3803 125.062 49.2367C124.939 49.0931 124.733 48.97 124.487 48.8675C124.241 48.7649 123.913 48.6828 123.543 48.6008L122.456 48.4366C121.984 48.3546 121.574 48.252 121.184 48.1494C120.815 48.0263 120.507 47.8827 120.24 47.6981C119.974 47.5135 119.789 47.2673 119.666 47.0006C119.543 46.7134 119.461 46.3646 119.461 45.9543C119.461 45.544 119.543 45.2157 119.728 44.908C119.892 44.6003 120.138 44.3336 120.425 44.1079C120.733 43.9028 121.082 43.7386 121.471 43.6155C121.882 43.4925 122.313 43.4514 122.784 43.4514C123.256 43.4514 123.892 43.513 124.303 43.6361C124.713 43.7592 125.041 43.9233 125.308 44.1284C125.574 44.3336 125.759 44.5798 125.903 44.8465C126.046 45.1132 126.149 45.4209 126.231 45.7286L125.328 45.9133C125.246 45.6466 125.123 45.4209 125.021 45.2157C124.918 45.0106 124.754 44.8465 124.569 44.7234C124.385 44.6003 124.159 44.4977 123.892 44.4156C123.626 44.3336 123.277 44.3131 122.866 44.3131C122.456 44.3131 122.025 44.3541 121.718 44.4362C121.41 44.5182 121.164 44.6413 120.979 44.7849C120.794 44.9285 120.651 45.1132 120.569 45.2978C120.487 45.503 120.446 45.6876 120.446 45.8928C120.446 46.0979 120.466 46.2825 120.507 46.4467C120.548 46.6108 120.651 46.7544 120.774 46.8775C120.897 47.0006 121.102 47.1031 121.348 47.2057C121.595 47.2878 121.923 47.3698 122.313 47.4519L123.667 47.6776C124.59 47.8417 125.287 48.1084 125.739 48.5187C126.19 48.9085 126.416 49.524 126.416 50.3241C126.416 51.1241 126.354 51.0011 126.21 51.3088C126.067 51.6165 125.862 51.8832 125.574 52.1089C125.287 52.3346 124.938 52.5192 124.528 52.6423C124.097 52.7654 123.626 52.8474 123.072 52.8474C122.518 52.8474 122.046 52.7859 121.595 52.6833C121.143 52.5807 120.753 52.4166 120.425 52.2115C120.097 51.9858 119.83 51.7191 119.625 51.3703C119.42 51.0216 119.297 50.6113 119.256 50.1189H120.24L120.199 50.0984Z" fill="white"/>
<path d="M128.364 50.96H129.657V52.5602H128.364V50.96Z" fill="white"/>
<path d="M135.955 40.2921H139.812C140.694 40.2921 141.412 40.3946 141.987 40.5793C142.561 40.7844 142.992 41.0306 143.32 41.3383C143.648 41.6461 143.874 41.9948 143.997 42.4051C144.12 42.8154 144.182 43.2052 144.182 43.6155C144.182 44.3951 143.997 45.0516 143.648 45.6055C143.3 46.1594 142.725 46.5697 141.946 46.857L144.592 52.5397H143.382L140.92 47.1031C140.715 47.1237 140.53 47.1442 140.325 47.1647C140.12 47.1647 139.894 47.1852 139.668 47.1852H137.001V52.5397H135.976V40.2715L135.955 40.2921ZM139.935 46.2825C140.551 46.2825 141.063 46.221 141.474 46.0979C141.884 45.9748 142.212 45.8107 142.438 45.5645C142.684 45.3388 142.848 45.0516 142.951 44.7439C143.053 44.4156 143.094 44.0669 143.094 43.6361C143.094 43.2052 143.033 42.877 142.93 42.5898C142.828 42.282 142.643 42.0359 142.397 41.8307C142.151 41.6256 141.802 41.4614 141.371 41.3589C140.94 41.2563 140.407 41.1947 139.75 41.1947H136.981V46.262H139.935V46.2825Z" fill="white"/>
<path d="M153.29 50.242C153.146 51.0011 152.777 51.637 152.182 52.1089C151.587 52.5807 150.746 52.8269 149.638 52.8269C148.53 52.8269 147.382 52.4166 146.684 51.596C145.987 50.7754 145.638 49.6471 145.638 48.211C145.638 46.7749 145.74 46.7544 145.945 46.1594C146.151 45.5645 146.417 45.0721 146.787 44.6618C147.156 44.2515 147.566 43.9438 148.059 43.7386C148.551 43.5335 149.084 43.4309 149.659 43.4309C150.233 43.4309 150.931 43.5335 151.403 43.7592C151.874 43.9848 152.285 44.2926 152.572 44.6618C152.88 45.0516 153.105 45.503 153.228 46.0363C153.372 46.5697 153.434 47.1237 153.434 47.7391V48.3751H146.622C146.622 48.888 146.684 49.3598 146.807 49.7907C146.93 50.2215 147.115 50.6113 147.382 50.9395C147.628 51.2678 147.956 51.5139 148.325 51.7191C148.695 51.9037 149.146 52.0063 149.638 52.0063C150.131 52.0063 150.459 51.9653 150.767 51.8832C151.074 51.8012 151.341 51.6781 151.546 51.5139C151.751 51.3498 151.915 51.1652 152.039 50.96C152.162 50.7549 152.244 50.5087 152.326 50.242H153.29ZM152.408 47.534C152.408 47.0621 152.346 46.6108 152.244 46.221C152.141 45.8107 151.977 45.4824 151.772 45.1747C151.546 44.8875 151.259 44.6618 150.91 44.4977C150.561 44.3336 150.131 44.2515 149.638 44.2515C148.777 44.2515 148.1 44.5182 147.587 45.0516C147.074 45.585 146.766 46.4056 146.664 47.534H152.408Z" fill="white"/>
<path d="M161.148 51.3088C161.004 51.4934 160.82 51.6781 160.614 51.8422C160.409 52.0268 160.184 52.1704 159.917 52.314C159.65 52.4576 159.363 52.5602 159.055 52.6423C158.748 52.7243 158.399 52.7654 158.009 52.7654C157.086 52.7654 156.327 52.5397 155.773 52.0884C155.219 51.637 154.932 50.9805 154.932 50.0984C154.932 49.2162 155.055 49.0111 155.301 48.6418C155.547 48.2725 155.896 47.9648 156.306 47.7391C156.717 47.5135 157.209 47.3698 157.742 47.2878C158.276 47.2057 158.83 47.1442 159.404 47.1237L161.127 47.0621V46.7954C161.127 45.9338 160.963 45.2978 160.614 44.8875C160.286 44.4772 159.671 44.2925 158.809 44.2925C157.947 44.2925 158.03 44.3336 157.742 44.3951C157.455 44.4567 157.209 44.5592 157.004 44.7028C156.799 44.8259 156.655 44.9901 156.532 45.1747C156.409 45.3593 156.327 45.544 156.265 45.7696L155.363 45.626C155.691 44.19 156.84 43.4719 158.83 43.4719C160.82 43.4719 159.978 43.554 160.389 43.6976C160.82 43.8412 161.148 44.0669 161.415 44.3336C161.681 44.6208 161.866 44.949 161.968 45.3593C162.092 45.7696 162.133 46.2415 162.133 46.7544V52.5807H161.127V51.3293L161.148 51.3088ZM161.127 47.8622L159.486 47.9238C158.83 47.9443 158.276 48.0058 157.824 48.1084C157.373 48.211 157.024 48.3341 156.737 48.5187C156.47 48.7033 156.265 48.9085 156.142 49.1752C156.019 49.4419 155.957 49.7496 155.957 50.0984C155.957 50.6318 156.101 51.0626 156.409 51.3908C156.717 51.7191 157.25 51.8832 157.988 51.8832C158.727 51.8832 158.748 51.8422 159.117 51.7601C159.486 51.6781 159.794 51.5345 160.04 51.3293C160.245 51.1857 160.409 51.0421 160.553 50.8985C160.676 50.7549 160.799 50.6113 160.881 50.4471C160.963 50.283 161.025 50.0984 161.066 49.8932C161.107 49.6881 161.127 49.4419 161.127 49.1752V47.8622Z" fill="white"/>
<path d="M164.595 40.2921H165.6V52.5602H164.595V40.2921Z" fill="white"/>
<path d="M172.083 40.2921H175.94C176.822 40.2921 177.54 40.3946 178.115 40.5793C178.689 40.7844 179.12 41.0306 179.448 41.3383C179.776 41.6461 180.002 41.9948 180.125 42.4051C180.248 42.8154 180.31 43.2052 180.31 43.6155C180.31 44.3951 180.125 45.0516 179.776 45.6055C179.428 46.1594 178.853 46.5697 178.073 46.857L180.72 52.5397H179.51L177.048 47.1031C176.843 47.1237 176.658 47.1442 176.453 47.1647C176.248 47.1647 176.022 47.1852 175.796 47.1852H173.129V52.5397H172.104V40.2715L172.083 40.2921ZM176.063 46.2825C176.678 46.2825 177.191 46.221 177.602 46.0979C178.012 45.9748 178.34 45.8107 178.566 45.5645C178.812 45.3388 178.976 45.0516 179.079 44.7439C179.181 44.4156 179.222 44.0669 179.222 43.6361C179.222 43.2052 179.161 42.877 179.058 42.5898C178.956 42.282 178.771 42.0359 178.525 41.8307C178.279 41.6256 177.93 41.4614 177.499 41.3589C177.068 41.2563 176.535 41.1947 175.878 41.1947H173.109V46.262H176.063V46.2825Z" fill="white"/>
<path d="M189.419 50.242C189.275 51.0011 188.906 51.637 188.311 52.1089C187.716 52.5807 186.875 52.8269 185.767 52.8269C184.659 52.8269 183.51 52.4166 182.813 51.596C182.115 50.7754 181.766 49.6471 181.766 48.211C181.766 46.7749 181.869 46.7544 182.074 46.1594C182.279 45.5645 182.546 45.0721 182.915 44.6618C183.285 44.2515 183.695 43.9438 184.187 43.7386C184.68 43.5335 185.213 43.4309 185.787 43.4309C186.362 43.4309 187.059 43.5335 187.531 43.7592C188.003 43.9848 188.413 44.2926 188.701 44.6618C189.008 45.0516 189.234 45.503 189.357 46.0363C189.501 46.5697 189.562 47.1237 189.562 47.7391V48.3751H182.751C182.751 48.888 182.813 49.3598 182.936 49.7907C183.059 50.2215 183.244 50.6113 183.51 50.9395C183.756 51.2678 184.085 51.5139 184.454 51.7191C184.823 51.9037 185.275 52.0063 185.767 52.0063C186.259 52.0063 186.588 51.9653 186.895 51.8832C187.203 51.8012 187.47 51.6781 187.675 51.5139C187.88 51.3498 188.044 51.1652 188.167 50.96C188.29 50.7549 188.372 50.5087 188.454 50.242H189.419ZM188.536 47.534C188.536 47.0621 188.475 46.6108 188.372 46.221C188.27 45.8107 188.106 45.4824 187.9 45.1747C187.675 44.8875 187.388 44.6618 187.039 44.4977C186.69 44.3336 186.259 44.2515 185.767 44.2515C184.905 44.2515 184.228 44.5182 183.715 45.0516C183.202 45.585 182.895 46.4056 182.792 47.534H188.536Z" fill="white"/>
<path d="M192.146 44.5387H190.772V43.7181H192.146V41.2768H193.152V43.7181H195.654V44.5387H193.152V50.324C193.152 50.7549 193.234 51.1241 193.418 51.4319C193.603 51.7396 193.931 51.8832 194.382 51.8832C194.834 51.8832 194.936 51.8627 195.142 51.8217C195.347 51.7806 195.531 51.7191 195.695 51.6575L195.901 52.4576C195.736 52.5192 195.511 52.5807 195.265 52.6423C195.018 52.7038 194.69 52.7243 194.3 52.7243C193.911 52.7243 193.398 52.6423 193.111 52.4576C192.823 52.2935 192.618 52.0678 192.475 51.7806C192.331 51.4934 192.249 51.1857 192.208 50.8164C192.167 50.4471 192.146 50.0573 192.146 49.6676V44.5182V44.5387Z" fill="white"/>
<path d="M197.275 43.7181H198.281V49.3393C198.281 50.2625 198.424 50.9395 198.712 51.3498C198.999 51.7601 199.512 51.9653 200.209 51.9653C200.907 51.9653 200.927 51.9037 201.276 51.7601C201.625 51.6165 201.973 51.4114 202.281 51.1447C202.609 50.8369 202.856 50.5497 203.04 50.2215C203.204 49.9137 203.307 49.4829 203.307 48.929V43.7386H204.312V52.5807H203.307V51.1447C202.384 52.2935 201.317 52.868 200.086 52.868C198.855 52.868 198.363 52.6013 197.932 52.0473C197.501 51.4934 197.275 50.6933 197.275 49.647V43.7591V43.7181Z" fill="white"/>
<path d="M206.713 43.7181H207.718V45.1542C208.067 44.6413 208.477 44.2515 208.929 43.9848C209.38 43.7181 209.872 43.5745 210.385 43.5745C210.898 43.5745 210.632 43.5745 210.734 43.5745C210.837 43.5745 210.96 43.5745 211.083 43.6155L210.96 44.5593C210.755 44.5182 210.57 44.4977 210.385 44.4977C210.078 44.4977 209.79 44.5593 209.483 44.6618C209.175 44.7644 208.888 44.949 208.601 45.2157C208.334 45.4414 208.129 45.7286 207.944 46.0569C207.78 46.3851 207.677 46.7749 207.677 47.2262V52.5602H206.672V43.7181H206.713Z" fill="white"/>
<path d="M212.498 43.7181H213.503V45.1542C213.975 44.5387 214.488 44.1079 215.042 43.8412C215.596 43.5745 216.17 43.4309 216.786 43.4309C217.791 43.4309 218.53 43.7181 219.022 44.272C219.494 44.826 219.74 45.626 219.74 46.6518V52.5397H218.735V46.9185C218.735 45.9953 218.571 45.3183 218.242 44.908C217.914 44.4977 217.381 44.2925 216.663 44.2925C215.945 44.2925 215.965 44.3541 215.575 44.4977C215.186 44.6208 214.837 44.8465 214.529 45.1337C214.18 45.4414 213.934 45.7286 213.75 46.0569C213.585 46.3646 213.483 46.7954 213.483 47.3493V52.5397H212.478V43.6976L212.498 43.7181Z" fill="white"/>
<path d="M222.612 50.0984C222.735 50.7754 223.022 51.2678 223.494 51.555C223.945 51.8422 224.602 51.9858 225.443 51.9858C226.284 51.9858 226.9 51.8217 227.269 51.5139C227.618 51.1857 227.802 50.7959 227.802 50.3035C227.802 49.8112 227.782 49.9137 227.741 49.7291C227.7 49.5445 227.597 49.3803 227.474 49.2367C227.351 49.0931 227.146 48.97 226.9 48.8675C226.653 48.7649 226.325 48.6828 225.956 48.6008L224.869 48.4366C224.397 48.3546 223.986 48.252 223.597 48.1494C223.227 48.0263 222.92 47.8827 222.653 47.6981C222.386 47.5135 222.202 47.2673 222.079 47.0006C221.955 46.7134 221.873 46.3646 221.873 45.9543C221.873 45.544 221.955 45.2157 222.14 44.908C222.304 44.6003 222.55 44.3336 222.838 44.1079C223.145 43.9028 223.494 43.7386 223.884 43.6155C224.294 43.4925 224.725 43.4514 225.197 43.4514C225.669 43.4514 226.305 43.513 226.715 43.6361C227.125 43.7592 227.454 43.9233 227.72 44.1284C227.987 44.3336 228.172 44.5798 228.315 44.8465C228.459 45.1132 228.561 45.4209 228.643 45.7286L227.741 45.9133C227.659 45.6466 227.536 45.4209 227.433 45.2157C227.33 45.0106 227.166 44.8465 226.982 44.7234C226.797 44.6003 226.571 44.4977 226.305 44.4156C226.038 44.3336 225.689 44.3131 225.279 44.3131C224.869 44.3131 224.438 44.3541 224.13 44.4362C223.822 44.5182 223.576 44.6413 223.392 44.7849C223.207 44.9285 223.063 45.1132 222.981 45.2978C222.899 45.503 222.858 45.6876 222.858 45.8928C222.858 46.0979 222.879 46.2825 222.92 46.4467C222.961 46.6108 223.063 46.7544 223.186 46.8775C223.309 47.0006 223.515 47.1031 223.761 47.2057C224.007 47.2878 224.335 47.3698 224.725 47.4519L226.079 47.6776C227.002 47.8417 227.7 48.1084 228.151 48.5187C228.602 48.9085 228.828 49.524 228.828 50.3241C228.828 51.1241 228.767 51.0011 228.623 51.3088C228.479 51.6165 228.274 51.8832 227.987 52.1089C227.7 52.3346 227.351 52.5192 226.941 52.6423C226.51 52.7654 226.038 52.8474 225.484 52.8474C224.93 52.8474 224.458 52.7859 224.007 52.6833C223.556 52.5807 223.166 52.4166 222.838 52.2115C222.509 51.9858 222.243 51.7191 222.037 51.3703C221.832 51.0216 221.709 50.6113 221.668 50.1189H222.653L222.612 50.0984Z" fill="white"/>
<path d="M230.777 50.96H232.069V52.5602H230.777V50.96Z" fill="white"/>
<path d="M6.62611 10.2987V16.9251H21.274L26.4644 10.2987H6.62611Z" fill="#CE8000"/>
<path d="M0 20.2281V26.834H14.689L19.8383 20.2281H0Z" fill="#CE8000"/>
<path d="M33.0707 0.389786H13.2324V6.99571H27.8598L33.0707 0.389786Z" fill="#CE8000"/>
</svg>
