<svg width="298" height="28" viewBox="0 0 298 28" fill="none" xmlns="http://www.w3.org/2000/svg">
<path d="M40.6953 0.993295H59.9797V7.20943H48.4296V10.8612H58.5641V17.0568H48.4296V21.1804H60.1849V27.376H40.6953V0.972778V0.993295Z" fill="white"/>
<path d="M84.7418 27.3965H64.3086V0.993301H72.0634V21.2214H84.7418V27.3965Z" fill="white"/>
<path d="M95.5517 27.3965H87.7969V0.993301H95.5517V27.3965Z" fill="white"/>
<path d="M98.5078 0.993301H121.505V7.33253H113.792V27.3965H106.037V7.33253H98.5078V0.993301Z" fill="white"/>
<path d="M124.48 0.993295H143.765V7.20943H132.215V10.8612H142.349V17.0568H132.215V21.1804H143.97V27.376H124.48V0.972778V0.993295Z" fill="white"/>
<path d="M160.587 0.582993C165.244 0.582993 169.244 2.83968 171.747 6.51192L169.983 7.80438C167.624 4.4809 164.259 2.69607 160.587 2.69607C154.33 2.69607 149.755 7.47614 149.755 13.9179C149.755 20.3597 154.412 25.1193 160.71 25.1193C167.008 25.1193 167.829 23.396 170.208 20.011L171.911 21.3035C169.47 24.9141 165.326 27.2119 160.71 27.2119C153.16 27.2119 147.457 21.4881 147.457 13.9179C147.457 6.34779 153.099 0.582993 160.607 0.582993H160.587Z" fill="white"/>
<path d="M173.758 26.8426L184.487 0.972778H187.482L198.212 26.8426H195.894L193.124 20.2366H178.866L176.096 26.8426H173.778H173.758ZM192.283 18.1851L185.985 3.02431L179.707 18.1851H192.303H192.283Z" fill="white"/>
<path d="M202.418 26.8426V0.972778H212.963C217.907 0.972778 221.128 3.9475 221.128 8.44035C221.128 12.9332 217.907 15.8259 212.963 15.8259H204.695V26.8426H202.418ZM204.716 13.7743H212.86C216.758 13.7743 218.81 11.6613 218.81 8.44035C218.81 5.21945 216.779 3.02431 212.86 3.02431H204.716V13.7743Z" fill="white"/>
<path d="M226.236 0.972778H228.514V26.8426H226.236V0.972778Z" fill="white"/>
<path d="M233.086 0.972778H252.924V3.06534H244.144V26.8426H241.866V3.06534H233.086V0.972778Z" fill="white"/>
<path d="M251.059 26.8426L261.788 0.972778H264.783L275.513 26.8426H273.195L270.425 20.2366H256.167L253.397 26.8426H251.079H251.059ZM269.563 18.1851L263.265 3.02431L256.988 18.1851H269.584H269.563Z" fill="white"/>
<path d="M279.72 26.8426V0.972778H281.997V24.75H297.65V26.8426H279.699H279.72Z" fill="white"/>
<path d="M7.27734 10.8817V17.5081H21.9253L27.1156 10.8817H7.27734Z" fill="#CE8000"/>
<path d="M0.650391 20.8111V27.417H15.3394L20.4887 20.8111H0.650391Z" fill="#CE8000"/>
<path d="M33.7211 0.972778H13.8828V7.5787H28.5102L33.7211 0.972778Z" fill="#CE8000"/>
</svg>
