<svg width="667" height="119" viewBox="0 0 667 119" fill="none" xmlns="http://www.w3.org/2000/svg">
<path d="M90.5588 0.919054H133.803V14.8583H107.902V23.047H130.628V36.9402H107.902V46.187H134.263V60.0802H90.5588V0.873047V0.919054Z" fill="white"/>
<path d="M189.33 60.1271H143.51V0.919922H160.899V46.2799H189.33V60.1271Z" fill="white"/>
<path d="M213.571 60.1271H196.182V0.919922H213.571V60.1271Z" fill="white"/>
<path d="M220.197 0.919922H271.768V15.1352H254.47V60.1271H237.081V15.1352H220.197V0.919922Z" fill="white"/>
<path d="M278.44 0.919054H321.683V14.8583H295.783V23.047H318.509V36.9402H295.783V46.187H322.144V60.0802H278.44V0.873047V0.919054Z" fill="white"/>
<path d="M359.406 0C369.849 0 378.819 5.06044 384.432 13.2952L380.476 16.1934C375.185 8.74076 367.64 4.73841 359.406 4.73841C345.374 4.73841 335.116 15.4574 335.116 29.9026C335.116 44.3479 345.558 55.0208 359.682 55.0208C373.805 55.0208 375.645 51.1565 380.982 43.5658L384.8 46.4641C379.325 54.5608 370.033 59.7132 359.682 59.7132C342.752 59.7132 329.963 46.8781 329.963 29.9026C329.963 12.9271 342.614 0 359.452 0H359.406Z" fill="white"/>
<path d="M388.942 58.8841L413.002 0.873047H419.718L443.778 58.8841H438.58L432.369 44.0708H400.397L394.186 58.8841H388.988H388.942ZM430.483 39.4704L416.36 5.47345L402.283 39.4704H430.529H430.483Z" fill="white"/>
<path d="M453.209 58.8841V0.873047H476.855C487.942 0.873047 495.165 7.54363 495.165 17.6185C495.165 27.6934 487.942 34.18 476.855 34.18H458.316V58.8841H453.209ZM458.362 29.5796H476.625C485.366 29.5796 489.966 24.8411 489.966 17.6185C489.966 10.3959 485.412 5.47345 476.625 5.47345H458.362V29.5796Z" fill="white"/>
<path d="M506.619 0.873047H511.726V58.8841H506.619V0.873047Z" fill="white"/>
<path d="M521.983 0.873047H566.469V5.56545H546.779V58.8841H541.672V5.56545H521.983V0.873047Z" fill="white"/>
<path d="M562.283 58.8841L586.344 0.873047H593.06L617.12 58.8841H611.922L605.711 44.0708H573.738L567.528 58.8841H562.329H562.283ZM603.779 39.4704L589.656 5.47345L575.579 39.4704H603.825H603.779Z" fill="white"/>
<path d="M626.552 58.8841V0.873047H631.659V54.1917H666.76V58.8841H626.506H626.552Z" fill="white"/>
<path d="M89.8224 90.3517H98.4711C100.449 90.3517 102.059 90.5817 103.348 90.9957C104.636 91.4558 105.602 92.0078 106.338 92.6979C107.074 93.3879 107.58 94.17 107.856 95.0901C108.132 96.0102 108.27 96.8842 108.27 97.8043C108.27 99.5525 107.856 101.025 107.074 102.267C106.292 103.509 105.004 104.429 103.256 105.073L109.19 117.816H106.476L100.955 105.625C100.495 105.671 100.081 105.717 99.6212 105.763C99.1612 105.763 98.6552 105.809 98.1491 105.809H92.1686V117.816H89.8684V90.3057L89.8224 90.3517ZM98.7472 103.785C100.127 103.785 101.277 103.647 102.197 103.371C103.118 103.095 103.854 102.727 104.36 102.175C104.912 101.669 105.28 101.025 105.51 100.335C105.74 99.5985 105.832 98.8164 105.832 97.8503C105.832 96.8843 105.694 96.1482 105.464 95.5041C105.234 94.8141 104.82 94.262 104.268 93.802C103.716 93.3419 102.934 92.9739 101.967 92.7439C101.001 92.5139 99.8053 92.3758 98.3331 92.3758H92.1226V103.739H98.7472V103.785Z" fill="white"/>
<path d="M128.697 112.664C128.375 114.366 127.547 115.792 126.212 116.85C124.878 117.908 122.992 118.46 120.508 118.46C118.024 118.46 115.448 117.54 113.883 115.7C112.319 113.86 111.537 111.33 111.537 108.11C111.537 104.889 111.767 104.843 112.227 103.509C112.687 102.175 113.285 101.071 114.113 100.151C114.942 99.2308 115.862 98.5407 116.966 98.0807C118.07 97.6206 119.266 97.3906 120.554 97.3906C121.842 97.3906 123.406 97.6206 124.464 98.1267C125.522 98.6327 126.443 99.3228 127.087 100.151C127.777 101.025 128.283 102.037 128.559 103.233C128.881 104.429 129.019 105.671 129.019 107.051V108.478H113.745C113.745 109.628 113.883 110.686 114.159 111.652C114.435 112.618 114.849 113.492 115.448 114.228C116 114.964 116.736 115.516 117.564 115.976C118.392 116.39 119.404 116.62 120.508 116.62C121.612 116.62 122.348 116.528 123.038 116.344C123.728 116.16 124.326 115.884 124.786 115.516C125.246 115.148 125.614 114.734 125.89 114.274C126.166 113.814 126.351 113.262 126.535 112.664H128.697ZM126.719 106.591C126.719 105.533 126.581 104.521 126.351 103.647C126.12 102.727 125.752 101.991 125.292 101.301C124.786 100.657 124.142 100.151 123.36 99.7828C122.578 99.4148 121.612 99.2308 120.508 99.2308C118.576 99.2308 117.058 99.8288 115.908 101.025C114.757 102.221 114.067 104.061 113.837 106.591H126.719Z" fill="white"/>
<path d="M146.316 115.056C145.994 115.47 145.58 115.884 145.12 116.252C144.66 116.666 144.154 116.988 143.556 117.31C142.958 117.632 142.314 117.862 141.624 118.046C140.934 118.23 140.152 118.322 139.278 118.322C137.207 118.322 135.505 117.816 134.263 116.804C133.021 115.792 132.377 114.32 132.377 112.342C132.377 110.364 132.653 109.904 133.205 109.075C133.757 108.247 134.539 107.557 135.459 107.051C136.379 106.545 137.484 106.223 138.68 106.039C139.876 105.855 141.118 105.717 142.406 105.671L146.27 105.533V104.935C146.27 103.003 145.902 101.577 145.12 100.657C144.384 99.7366 143.004 99.3226 141.072 99.3226C139.14 99.3226 139.324 99.4146 138.68 99.5526C138.036 99.6906 137.484 99.9206 137.023 100.243C136.563 100.519 136.241 100.887 135.965 101.301C135.689 101.715 135.505 102.129 135.367 102.635L133.343 102.313C134.079 99.0926 136.655 97.4824 141.118 97.4824C145.58 97.4824 143.694 97.6665 144.614 97.9885C145.58 98.3105 146.316 98.8165 146.914 99.4146C147.512 100.059 147.926 100.795 148.156 101.715C148.432 102.635 148.524 103.693 148.524 104.843V117.908H146.27V115.102L146.316 115.056ZM146.27 107.327L142.59 107.465C141.118 107.511 139.876 107.649 138.864 107.879C137.852 108.109 137.069 108.385 136.425 108.799C135.827 109.213 135.367 109.674 135.091 110.272C134.815 110.87 134.677 111.56 134.677 112.342C134.677 113.538 134.999 114.504 135.689 115.24C136.379 115.976 137.576 116.344 139.232 116.344C140.888 116.344 140.934 116.252 141.762 116.068C142.59 115.884 143.28 115.562 143.832 115.102C144.292 114.78 144.66 114.458 144.982 114.136C145.258 113.814 145.534 113.492 145.718 113.124C145.902 112.756 146.04 112.342 146.132 111.882C146.224 111.422 146.27 110.87 146.27 110.272V107.327Z" fill="white"/>
<path d="M153.998 90.3516H156.252V117.862H153.998V90.3516Z" fill="white"/>
<path d="M179.024 90.3516H181.784L192.641 117.862H190.111L186.799 109.443H173.872L170.605 117.862H168.121L179.024 90.3516ZM185.971 107.327L180.312 92.9738L174.746 107.327H185.971Z" fill="white"/>
<path d="M197.013 112.341C197.289 113.859 197.933 114.963 198.991 115.607C200.003 116.251 201.475 116.573 203.361 116.573C205.248 116.573 206.628 116.205 207.456 115.515C208.238 114.779 208.652 113.905 208.652 112.801C208.652 111.697 208.606 111.927 208.514 111.513C208.422 111.099 208.192 110.731 207.916 110.409C207.64 110.087 207.18 109.811 206.628 109.581C206.076 109.351 205.34 109.167 204.511 108.983L202.073 108.615C201.015 108.431 200.095 108.201 199.221 107.97C198.393 107.694 197.703 107.372 197.105 106.958C196.507 106.544 196.093 105.992 195.817 105.394C195.541 104.75 195.357 103.968 195.357 103.048C195.357 102.128 195.541 101.392 195.955 100.702C196.323 100.012 196.875 99.4137 197.519 98.9077C198.209 98.4476 198.991 98.0796 199.865 97.8036C200.785 97.5275 201.751 97.4355 202.809 97.4355C203.867 97.4355 205.294 97.5736 206.214 97.8496C207.134 98.1256 207.87 98.4936 208.468 98.9537C209.066 99.4137 209.48 99.9658 209.802 100.564C210.124 101.162 210.354 101.852 210.538 102.542L208.514 102.956C208.33 102.358 208.054 101.852 207.824 101.392C207.594 100.932 207.226 100.564 206.812 100.288C206.398 100.012 205.892 99.7818 205.294 99.5977C204.695 99.4137 203.913 99.3677 202.993 99.3677C202.073 99.3677 201.107 99.4597 200.417 99.6437C199.727 99.8278 199.175 100.104 198.761 100.426C198.347 100.748 198.025 101.162 197.841 101.576C197.657 102.036 197.565 102.45 197.565 102.91C197.565 103.37 197.611 103.784 197.703 104.152C197.795 104.52 198.025 104.842 198.301 105.118C198.577 105.394 199.037 105.624 199.589 105.854C200.141 106.038 200.877 106.222 201.751 106.406L204.787 106.912C206.858 107.28 208.422 107.878 209.434 108.799C210.446 109.673 210.952 111.053 210.952 112.847C210.952 114.641 210.814 114.365 210.492 115.055C210.17 115.745 209.71 116.343 209.066 116.849C208.422 117.355 207.64 117.769 206.72 118.045C205.754 118.321 204.695 118.505 203.453 118.505C202.211 118.505 201.153 118.367 200.141 118.137C199.129 117.907 198.255 117.539 197.519 117.079C196.783 116.573 196.185 115.975 195.725 115.193C195.265 114.411 194.989 113.491 194.897 112.387H197.105L197.013 112.341Z" fill="white"/>
<path d="M216.794 112.341C217.07 113.859 217.714 114.963 218.772 115.607C219.784 116.251 221.256 116.573 223.143 116.573C225.029 116.573 226.409 116.205 227.237 115.515C228.019 114.779 228.433 113.905 228.433 112.801C228.433 111.697 228.387 111.927 228.295 111.513C228.203 111.099 227.973 110.731 227.697 110.409C227.421 110.087 226.961 109.811 226.409 109.581C225.857 109.351 225.121 109.167 224.293 108.983L221.855 108.615C220.796 108.431 219.876 108.201 219.002 107.97C218.174 107.694 217.484 107.372 216.886 106.958C216.288 106.544 215.874 105.992 215.598 105.394C215.322 104.75 215.138 103.968 215.138 103.048C215.138 102.128 215.322 101.392 215.736 100.702C216.104 100.012 216.656 99.4137 217.3 98.9077C217.99 98.4476 218.772 98.0796 219.646 97.8036C220.566 97.5275 221.532 97.4355 222.591 97.4355C223.649 97.4355 225.075 97.5736 225.995 97.8496C226.915 98.1256 227.651 98.4936 228.249 98.9537C228.847 99.4137 229.261 99.9658 229.583 100.564C229.905 101.162 230.135 101.852 230.319 102.542L228.295 102.956C228.111 102.358 227.835 101.852 227.605 101.392C227.375 100.932 227.007 100.564 226.593 100.288C226.179 100.012 225.673 99.7818 225.075 99.5977C224.477 99.4137 223.695 99.3677 222.775 99.3677C221.855 99.3677 220.888 99.4597 220.198 99.6437C219.508 99.8278 218.956 100.104 218.542 100.426C218.128 100.748 217.806 101.162 217.622 101.576C217.438 102.036 217.346 102.45 217.346 102.91C217.346 103.37 217.392 103.784 217.484 104.152C217.576 104.52 217.806 104.842 218.082 105.118C218.358 105.394 218.818 105.624 219.37 105.854C219.922 106.038 220.658 106.222 221.532 106.406L224.569 106.912C226.639 107.28 228.203 107.878 229.215 108.799C230.227 109.673 230.733 111.053 230.733 112.847C230.733 114.641 230.595 114.365 230.273 115.055C229.951 115.745 229.491 116.343 228.847 116.849C228.203 117.355 227.421 117.769 226.501 118.045C225.535 118.321 224.477 118.505 223.235 118.505C221.993 118.505 220.934 118.367 219.922 118.137C218.91 117.907 218.036 117.539 217.3 117.079C216.564 116.573 215.966 115.975 215.506 115.193C215.046 114.411 214.77 113.491 214.678 112.387H216.886L216.794 112.341Z" fill="white"/>
<path d="M251.388 112.664C251.066 114.366 250.238 115.792 248.904 116.85C247.57 117.908 245.684 118.46 243.2 118.46C240.715 118.46 238.139 117.54 236.575 115.7C235.011 113.86 234.229 111.33 234.229 108.11C234.229 104.889 234.459 104.843 234.919 103.509C235.379 102.175 235.977 101.071 236.805 100.151C237.633 99.2308 238.553 98.5407 239.657 98.0807C240.761 97.6206 241.958 97.3906 243.246 97.3906C244.534 97.3906 246.098 97.6206 247.156 98.1267C248.214 98.6327 249.134 99.3228 249.778 100.151C250.468 101.025 250.974 102.037 251.25 103.233C251.572 104.429 251.71 105.671 251.71 107.051V108.478H236.437C236.437 109.628 236.575 110.686 236.851 111.652C237.127 112.618 237.541 113.492 238.139 114.228C238.691 114.964 239.427 115.516 240.255 115.976C241.083 116.39 242.096 116.62 243.2 116.62C244.304 116.62 245.04 116.528 245.73 116.344C246.42 116.16 247.018 115.884 247.478 115.516C247.938 115.148 248.306 114.734 248.582 114.274C248.858 113.814 249.042 113.262 249.226 112.664H251.388ZM249.41 106.591C249.41 105.533 249.272 104.521 249.042 103.647C248.812 102.727 248.444 101.991 247.984 101.301C247.478 100.657 246.834 100.151 246.052 99.7828C245.27 99.4148 244.304 99.2308 243.2 99.2308C241.267 99.2308 239.749 99.8288 238.599 101.025C237.449 102.221 236.759 104.061 236.529 106.591H249.41Z" fill="white"/>
<path d="M257.508 99.8732H254.426V98.0331H257.508V92.5586H259.762V98.0331H265.375V99.8732H259.762V112.846C259.762 113.812 259.946 114.641 260.36 115.331C260.774 116.021 261.511 116.343 262.523 116.343C263.535 116.343 263.765 116.297 264.225 116.205C264.685 116.113 265.099 115.975 265.467 115.837L265.927 117.631C265.559 117.769 265.053 117.907 264.501 118.045C263.949 118.183 263.213 118.229 262.339 118.229C261.465 118.229 260.314 118.045 259.67 117.631C259.026 117.263 258.566 116.757 258.244 116.113C257.922 115.469 257.738 114.779 257.646 113.95C257.554 113.122 257.508 112.248 257.508 111.374V99.8272V99.8732Z" fill="white"/>
<path d="M270.298 112.341C270.574 113.859 271.218 114.963 272.276 115.607C273.288 116.251 274.76 116.573 276.646 116.573C278.533 116.573 279.913 116.205 280.741 115.515C281.523 114.779 281.937 113.905 281.937 112.801C281.937 111.697 281.891 111.927 281.799 111.513C281.707 111.099 281.477 110.731 281.201 110.409C280.925 110.087 280.465 109.811 279.913 109.581C279.361 109.351 278.625 109.167 277.797 108.983L275.358 108.615C274.3 108.431 273.38 108.201 272.506 107.97C271.678 107.694 270.988 107.372 270.39 106.958C269.792 106.544 269.378 105.992 269.102 105.394C268.826 104.75 268.642 103.968 268.642 103.048C268.642 102.128 268.826 101.392 269.24 100.702C269.608 100.012 270.16 99.4137 270.804 98.9077C271.494 98.4476 272.276 98.0796 273.15 97.8036C274.07 97.5275 275.036 97.4355 276.094 97.4355C277.153 97.4355 278.579 97.5736 279.499 97.8496C280.419 98.1256 281.155 98.4936 281.753 98.9537C282.351 99.4137 282.765 99.9658 283.087 100.564C283.409 101.162 283.639 101.852 283.823 102.542L281.799 102.956C281.615 102.358 281.339 101.852 281.109 101.392C280.879 100.932 280.511 100.564 280.097 100.288C279.683 100.012 279.177 99.7818 278.579 99.5977C277.981 99.4137 277.199 99.3677 276.278 99.3677C275.358 99.3677 274.392 99.4597 273.702 99.6437C273.012 99.8278 272.46 100.104 272.046 100.426C271.632 100.748 271.31 101.162 271.126 101.576C270.942 102.036 270.85 102.45 270.85 102.91C270.85 103.37 270.896 103.784 270.988 104.152C271.08 104.52 271.31 104.842 271.586 105.118C271.862 105.394 272.322 105.624 272.874 105.854C273.426 106.038 274.162 106.222 275.036 106.406L278.073 106.912C280.143 107.28 281.707 107.878 282.719 108.799C283.731 109.673 284.237 111.053 284.237 112.847C284.237 114.641 284.099 114.365 283.777 115.055C283.455 115.745 282.995 116.343 282.351 116.849C281.707 117.355 280.925 117.769 280.005 118.045C279.039 118.321 277.981 118.505 276.739 118.505C275.496 118.505 274.438 118.367 273.426 118.137C272.414 117.907 271.54 117.539 270.804 117.079C270.068 116.573 269.47 115.975 269.01 115.193C268.55 114.411 268.274 113.491 268.182 112.387H270.39L270.298 112.341Z" fill="white"/>
<path d="M288.606 114.273H291.504V117.862H288.606V114.273Z" fill="white"/>
<path d="M305.627 90.3517H314.276C316.254 90.3517 317.864 90.5817 319.152 90.9957C320.44 91.4558 321.406 92.0078 322.143 92.6979C322.879 93.3879 323.385 94.17 323.661 95.0901C323.937 96.0102 324.075 96.8842 324.075 97.8043C324.075 99.5525 323.661 101.025 322.879 102.267C322.097 103.509 320.808 104.429 319.06 105.073L324.995 117.816H322.281L316.76 105.625C316.3 105.671 315.886 105.717 315.426 105.763C314.966 105.763 314.46 105.809 313.954 105.809H307.973V117.816H305.673V90.3057L305.627 90.3517ZM314.552 103.785C315.932 103.785 317.082 103.647 318.002 103.371C318.922 103.095 319.658 102.727 320.164 102.175C320.716 101.669 321.084 101.025 321.314 100.335C321.544 99.5985 321.636 98.8164 321.636 97.8503C321.636 96.8843 321.498 96.1482 321.268 95.5041C321.038 94.8141 320.624 94.262 320.072 93.802C319.52 93.3419 318.738 92.9739 317.772 92.7439C316.806 92.5139 315.61 92.3758 314.138 92.3758H307.927V103.739H314.552V103.785Z" fill="white"/>
<path d="M344.499 112.664C344.177 114.366 343.349 115.792 342.015 116.85C340.681 117.908 338.795 118.46 336.311 118.46C333.827 118.46 331.25 117.54 329.686 115.7C328.122 113.86 327.34 111.33 327.34 108.11C327.34 104.889 327.57 104.843 328.03 103.509C328.49 102.175 329.088 101.071 329.916 100.151C330.744 99.2308 331.664 98.5407 332.768 98.0807C333.873 97.6206 335.069 97.3906 336.357 97.3906C337.645 97.3906 339.209 97.6206 340.267 98.1267C341.325 98.6327 342.245 99.3228 342.889 100.151C343.579 101.025 344.085 102.037 344.361 103.233C344.683 104.429 344.822 105.671 344.822 107.051V108.478H329.548C329.548 109.628 329.686 110.686 329.962 111.652C330.238 112.618 330.652 113.492 331.25 114.228C331.802 114.964 332.538 115.516 333.366 115.976C334.195 116.39 335.207 116.62 336.311 116.62C337.415 116.62 338.151 116.528 338.841 116.344C339.531 116.16 340.129 115.884 340.589 115.516C341.049 115.148 341.417 114.734 341.693 114.274C341.969 113.814 342.153 113.262 342.337 112.664H344.499ZM342.521 106.591C342.521 105.533 342.383 104.521 342.153 103.647C341.923 102.727 341.555 101.991 341.095 101.301C340.589 100.657 339.945 100.151 339.163 99.7828C338.381 99.4148 337.415 99.2308 336.311 99.2308C334.379 99.2308 332.86 99.8288 331.71 101.025C330.56 102.221 329.87 104.061 329.64 106.591H342.521Z" fill="white"/>
<path d="M362.121 115.056C361.799 115.47 361.385 115.884 360.925 116.252C360.465 116.666 359.959 116.988 359.361 117.31C358.763 117.632 358.119 117.862 357.429 118.046C356.739 118.23 355.956 118.322 355.082 118.322C353.012 118.322 351.31 117.816 350.068 116.804C348.826 115.792 348.182 114.32 348.182 112.342C348.182 110.364 348.458 109.904 349.01 109.075C349.562 108.247 350.344 107.557 351.264 107.051C352.184 106.545 353.288 106.223 354.484 106.039C355.68 105.855 356.923 105.717 358.211 105.671L362.075 105.533V104.935C362.075 103.003 361.707 101.577 360.925 100.657C360.189 99.7366 358.809 99.3226 356.877 99.3226C354.944 99.3226 355.128 99.4146 354.484 99.5526C353.84 99.6906 353.288 99.9206 352.828 100.243C352.368 100.519 352.046 100.887 351.77 101.301C351.494 101.715 351.31 102.129 351.172 102.635L349.148 102.313C349.884 99.0926 352.46 97.4824 356.923 97.4824C361.385 97.4824 359.499 97.6665 360.419 97.9885C361.385 98.3105 362.121 98.8165 362.719 99.4146C363.317 100.059 363.731 100.795 363.961 101.715C364.237 102.635 364.329 103.693 364.329 104.843V117.908H362.075V115.102L362.121 115.056ZM362.075 107.327L358.395 107.465C356.923 107.511 355.68 107.649 354.668 107.879C353.656 108.109 352.874 108.385 352.23 108.799C351.632 109.213 351.172 109.674 350.896 110.272C350.62 110.87 350.482 111.56 350.482 112.342C350.482 113.538 350.804 114.504 351.494 115.24C352.184 115.976 353.38 116.344 355.036 116.344C356.693 116.344 356.739 116.252 357.567 116.068C358.395 115.884 359.085 115.562 359.637 115.102C360.097 114.78 360.465 114.458 360.787 114.136C361.063 113.814 361.339 113.492 361.523 113.124C361.707 112.756 361.845 112.342 361.937 111.882C362.029 111.422 362.075 110.87 362.075 110.272V107.327Z" fill="white"/>
<path d="M369.85 90.3516H372.104V117.862H369.85V90.3516Z" fill="white"/>
<path d="M386.643 90.3517H395.291C397.27 90.3517 398.88 90.5817 400.168 90.9957C401.456 91.4558 402.422 92.0078 403.158 92.6979C403.894 93.3879 404.4 94.17 404.676 95.0901C404.952 96.0102 405.09 96.8842 405.09 97.8043C405.09 99.5525 404.676 101.025 403.894 102.267C403.112 103.509 401.824 104.429 400.076 105.073L406.01 117.816H403.296L397.776 105.625C397.316 105.671 396.902 105.717 396.442 105.763C395.981 105.763 395.475 105.809 394.969 105.809H388.989V117.816H386.689V90.3057L386.643 90.3517ZM395.567 103.785C396.948 103.785 398.098 103.647 399.018 103.371C399.938 103.095 400.674 102.727 401.18 102.175C401.732 101.669 402.1 101.025 402.33 100.335C402.56 99.5985 402.652 98.8164 402.652 97.8503C402.652 96.8843 402.514 96.1482 402.284 95.5041C402.054 94.8141 401.64 94.262 401.088 93.802C400.536 93.3419 399.754 92.9739 398.788 92.7439C397.822 92.5139 396.626 92.3758 395.153 92.3758H388.943V103.739H395.567V103.785Z" fill="white"/>
<path d="M425.517 112.664C425.195 114.366 424.367 115.792 423.033 116.85C421.699 117.908 419.813 118.46 417.328 118.46C414.844 118.46 412.268 117.54 410.704 115.7C409.14 113.86 408.358 111.33 408.358 108.11C408.358 104.889 408.588 104.843 409.048 103.509C409.508 102.175 410.106 101.071 410.934 100.151C411.762 99.2308 412.682 98.5407 413.786 98.0807C414.89 97.6206 416.086 97.3906 417.374 97.3906C418.662 97.3906 420.227 97.6206 421.285 98.1267C422.343 98.6327 423.263 99.3228 423.907 100.151C424.597 101.025 425.103 102.037 425.379 103.233C425.701 104.429 425.839 105.671 425.839 107.051V108.478H410.566C410.566 109.628 410.704 110.686 410.98 111.652C411.256 112.618 411.67 113.492 412.268 114.228C412.82 114.964 413.556 115.516 414.384 115.976C415.212 116.39 416.224 116.62 417.328 116.62C418.432 116.62 419.168 116.528 419.859 116.344C420.549 116.16 421.147 115.884 421.607 115.516C422.067 115.148 422.435 114.734 422.711 114.274C422.987 113.814 423.171 113.262 423.355 112.664H425.517ZM423.539 106.591C423.539 105.533 423.401 104.521 423.171 103.647C422.941 102.727 422.573 101.991 422.113 101.301C421.607 100.657 420.963 100.151 420.181 99.7828C419.399 99.4148 418.432 99.2308 417.328 99.2308C415.396 99.2308 413.878 99.8288 412.728 101.025C411.578 102.221 410.888 104.061 410.658 106.591H423.539Z" fill="white"/>
<path d="M431.631 99.8732H428.549V98.0331H431.631V92.5586H433.885V98.0331H439.498V99.8732H433.885V112.846C433.885 113.812 434.069 114.641 434.483 115.331C434.898 116.021 435.634 116.343 436.646 116.343C437.658 116.343 437.888 116.297 438.348 116.205C438.808 116.113 439.222 115.975 439.59 115.837L440.05 117.631C439.682 117.769 439.176 117.907 438.624 118.045C438.072 118.183 437.336 118.229 436.462 118.229C435.588 118.229 434.437 118.045 433.793 117.631C433.149 117.263 432.689 116.757 432.367 116.113C432.045 115.469 431.861 114.779 431.769 113.95C431.677 113.122 431.631 112.248 431.631 111.374V99.8272V99.8732Z" fill="white"/>
<path d="M443.135 98.0342H445.389V110.639C445.389 112.709 445.711 114.228 446.355 115.148C446.999 116.068 448.149 116.528 449.713 116.528C451.278 116.528 451.324 116.39 452.106 116.068C452.888 115.746 453.67 115.286 454.36 114.688C455.096 113.998 455.648 113.354 456.062 112.617C456.43 111.927 456.66 110.961 456.66 109.719V98.0802H458.914V117.908H456.66V114.688C454.59 117.264 452.198 118.552 449.437 118.552C446.677 118.552 445.573 117.954 444.607 116.712C443.641 115.47 443.135 113.676 443.135 111.329V98.1262V98.0342Z" fill="white"/>
<path d="M464.297 98.0339H466.551V101.254C467.333 100.104 468.254 99.23 469.266 98.632C470.278 98.0339 471.382 97.7119 472.532 97.7119C473.682 97.7119 473.084 97.7119 473.314 97.7119C473.544 97.7119 473.82 97.7119 474.096 97.8039L473.82 99.9201C473.36 99.8281 472.946 99.7821 472.532 99.7821C471.842 99.7821 471.198 99.9201 470.508 100.15C469.818 100.38 469.174 100.794 468.53 101.392C467.932 101.898 467.471 102.542 467.057 103.278C466.689 104.014 466.459 104.889 466.459 105.901V117.862H464.205V98.0339H464.297Z" fill="white"/>
<path d="M477.269 98.0347H479.523V101.255C480.581 99.8748 481.731 98.9088 482.973 98.3107C484.215 97.7127 485.504 97.3906 486.884 97.3906C489.138 97.3906 490.794 98.0347 491.898 99.2768C492.956 100.519 493.508 102.313 493.508 104.613V117.816H491.254V105.211C491.254 103.141 490.886 101.623 490.15 100.703C489.414 99.7828 488.218 99.3228 486.608 99.3228C484.997 99.3228 485.043 99.4608 484.169 99.7828C483.295 100.059 482.513 100.565 481.823 101.209C481.041 101.899 480.489 102.543 480.075 103.279C479.707 103.969 479.477 104.935 479.477 106.177V117.816H477.223V97.9887L477.269 98.0347Z" fill="white"/>
<path d="M499.948 112.341C500.224 113.859 500.868 114.963 501.927 115.607C502.939 116.251 504.411 116.573 506.297 116.573C508.183 116.573 509.563 116.205 510.391 115.515C511.173 114.779 511.587 113.905 511.587 112.801C511.587 111.697 511.541 111.927 511.449 111.513C511.357 111.099 511.127 110.731 510.851 110.409C510.575 110.087 510.115 109.811 509.563 109.581C509.011 109.351 508.275 109.167 507.447 108.983L505.009 108.615C503.951 108.431 503.031 108.201 502.157 107.97C501.328 107.694 500.638 107.372 500.04 106.958C499.442 106.544 499.028 105.992 498.752 105.394C498.476 104.75 498.292 103.968 498.292 103.048C498.292 102.128 498.476 101.392 498.89 100.702C499.258 100.012 499.81 99.4137 500.454 98.9077C501.144 98.4476 501.927 98.0796 502.801 97.8036C503.721 97.5275 504.687 97.4355 505.745 97.4355C506.803 97.4355 508.229 97.5736 509.149 97.8496C510.069 98.1256 510.805 98.4936 511.403 98.9537C512.001 99.4137 512.415 99.9658 512.737 100.564C513.06 101.162 513.29 101.852 513.474 102.542L511.449 102.956C511.265 102.358 510.989 101.852 510.759 101.392C510.529 100.932 510.161 100.564 509.747 100.288C509.333 100.012 508.827 99.7818 508.229 99.5977C507.631 99.4137 506.849 99.3677 505.929 99.3677C505.009 99.3677 504.043 99.4597 503.353 99.6437C502.663 99.8278 502.111 100.104 501.697 100.426C501.282 100.748 500.96 101.162 500.776 101.576C500.592 102.036 500.5 102.45 500.5 102.91C500.5 103.37 500.546 103.784 500.638 104.152C500.73 104.52 500.96 104.842 501.236 105.118C501.512 105.394 501.973 105.624 502.525 105.854C503.077 106.038 503.813 106.222 504.687 106.406L507.723 106.912C509.793 107.28 511.357 107.878 512.369 108.799C513.382 109.673 513.888 111.053 513.888 112.847C513.888 114.641 513.75 114.365 513.428 115.055C513.106 115.745 512.645 116.343 512.001 116.849C511.357 117.355 510.575 117.769 509.655 118.045C508.689 118.321 507.631 118.505 506.389 118.505C505.147 118.505 504.089 118.367 503.077 118.137C502.065 117.907 501.19 117.539 500.454 117.079C499.718 116.573 499.12 115.975 498.66 115.193C498.2 114.411 497.924 113.491 497.832 112.387H500.04L499.948 112.341Z" fill="white"/>
<path d="M518.256 114.273H521.154V117.862H518.256V114.273Z" fill="white"/>
<path d="M15.6152 23.0947V37.954H48.4621L60.1012 23.0947H15.6152Z" fill="#CE8000"/>
<path d="M0.757812 45.3584V60.1717H33.6967L45.2437 45.3584H0.757812Z" fill="#CE8000"/>
<path d="M74.9156 0.874023H30.4297V15.6873H63.2306L74.9156 0.874023Z" fill="#CE8000"/>
</svg>
